<?xml version="1.0" encoding="utf-8"?>
<!-- Generator: Adobe Illustrator 23.0.1, SVG Export Plug-In . SVG Version: 6.00 Build 0)  -->
<svg version="1.1" id="圖層_1" xmlns="http://www.w3.org/2000/svg" xmlns:xlink="http://www.w3.org/1999/xlink" x="0px" y="0px"
	 viewBox="0 0 30 34" style="enable-background:new 0 0 30 34;" xml:space="preserve">
<style type="text/css">
	.st0{fill:#00FFFF;}
	.st1{filter:url(#Adobe_OpacityMaskFilter);}
	.st2{opacity:0.3;mask:url(#SVGID_1_);}
</style>
<g>
	<g>
		<g>
			<path class="st0" d="M12.2,25.5c0.8,0,1.6-0.2,2.3-0.7l-3.4,8.4c-0.1,0.3-0.4,0.6-0.8,0.6c-0.4,0.1-0.7,0-1-0.3L6.9,31l-3.4,0.1
				c-0.4,0-0.7-0.2-0.9-0.5s-0.3-0.6-0.1-1l3-7.4c0.5,0.4,1.1,0.7,1.6,0.9l0.6,0.1c0.3,0.1,0.5,0.2,0.6,0.2s0.2,0.1,0.3,0.3
				c0.1,0.1,0.2,0.2,0.2,0.2C9.7,25.1,10.9,25.5,12.2,25.5z M18.1,23.4c-0.6,0.1-1.2-0.1-1.7-0.4c-0.4-0.3-0.9-0.4-1.4-0.4
				s-1,0.1-1.4,0.4c-0.5,0.3-1.1,0.4-1.7,0.4c-0.6-0.1-1.1-0.3-1.5-0.8c-0.4-0.4-0.7-0.7-1-0.8c-0.2-0.1-0.6-0.2-1.2-0.4l-0.5-0.1
				c-0.4-0.1-0.8-0.4-1.1-0.7c-0.3-0.4-0.6-0.7-0.7-1.2l-0.1-0.3c-0.2-0.7-0.3-1.1-0.4-1.3c-0.1-0.2-0.4-0.6-0.9-1.1l-0.3-0.3
				c-0.4-0.3-0.6-0.8-0.7-1.2c-0.1-0.5-0.1-0.9,0-1.3l0.1-0.4c0.2-0.7,0.3-1.2,0.3-1.4s-0.1-0.7-0.3-1.4l-0.1-0.3
				c-0.1-0.5-0.1-1,0-1.4c0.1-0.5,0.3-0.9,0.7-1.2l0.3-0.3C5,7,5.3,6.6,5.4,6.4s0.3-0.6,0.4-1.3l0.1-0.4C6,4.3,6.3,3.9,6.6,3.5
				C7,3.2,7.3,2.9,7.8,2.8l0.3-0.1c0.7-0.2,1.1-0.3,1.3-0.5c0.2-0.1,0.5-0.4,1-0.9L10.7,1c0.3-0.3,0.8-0.6,1.2-0.7
				c0.5-0.1,0.9-0.1,1.3,0l0.3,0.1c0.7,0.2,1.2,0.3,1.4,0.3s0.7-0.1,1.4-0.3l0.3-0.1c0.4-0.1,0.9-0.1,1.3,0c0.5,0.1,0.9,0.3,1.2,0.7
				l0.3,0.3c0.5,0.5,0.8,0.8,1,0.9s0.6,0.3,1.3,0.5L22,2.8c0.4,0.1,0.8,0.4,1.1,0.7c0.3,0.4,0.6,0.7,0.7,1.2l0.1,0.4
				c0.2,0.7,0.3,1.1,0.4,1.3s0.4,0.5,0.9,1l0.3,0.3c0.3,0.4,0.6,0.8,0.7,1.2c0.1,0.5,0.1,0.9,0,1.4l-0.1,0.3
				c-0.2,0.7-0.3,1.2-0.3,1.4s0.1,0.7,0.3,1.4l0.1,0.4c0.1,0.4,0.1,0.9,0,1.3c-0.1,0.5-0.3,0.9-0.7,1.2l-0.3,0.3
				c-0.5,0.5-0.8,0.9-0.9,1.1S24,18.3,23.9,19l-0.1,0.3c-0.1,0.4-0.4,0.8-0.7,1.2c-0.3,0.4-0.7,0.6-1.1,0.7l-0.5,0.1
				c-0.5,0.1-0.9,0.3-1.1,0.4s-0.5,0.4-0.9,0.8C19.2,23.1,18.7,23.3,18.1,23.4z M10.6,16.3c1.2,1.2,2.7,1.8,4.4,1.8s3.2-0.6,4.4-1.8
				c1.2-1.2,1.8-2.7,1.8-4.5s-0.6-3.2-1.8-4.5c-1.2-1.2-2.7-1.8-4.4-1.8s-3.2,0.6-4.4,1.8S8.8,10,8.8,11.8S9.4,15.1,10.6,16.3z
				 M27.4,30.8c-0.2,0.3-0.5,0.5-0.9,0.5l-3.4-0.1l-2.4,2.5c-0.3,0.3-0.6,0.4-1,0.3c-0.4-0.1-0.6-0.3-0.8-0.6L15.5,25
				c0.7,0.4,1.5,0.7,2.3,0.7c1.3,0,2.5-0.5,3.4-1.4l0.2-0.2c0.1-0.1,0.2-0.2,0.3-0.3c0.1,0,0.3-0.1,0.6-0.2l0.6-0.1
				c0.6-0.2,1.1-0.5,1.6-0.9l3,7.4C27.7,30.1,27.6,30.5,27.4,30.8z"/>
		</g>
	</g>
	<defs>
		<filter id="Adobe_OpacityMaskFilter" filterUnits="userSpaceOnUse" x="2.4" y="0.2" width="25.2" height="33.8">
			
				<feColorMatrix  type="matrix" values="-1 0 0 0 1  0 -1 0 0 1  0 0 -1 0 1  0 0 0 1 0" color-interpolation-filters="sRGB" result="source"/>
		</filter>
	</defs>
	<mask maskUnits="userSpaceOnUse" x="2.4" y="0.2" width="25.2" height="33.8" id="SVGID_1_">
		<g class="st1">
			<image style="overflow:visible;" width="30" height="39" xlink:href="122FEF80.jpg"  transform="matrix(1 0 0 1 0 -2)">
			</image>
		</g>
	</mask>
	<g class="st2">
		<g>
			<path d="M12.2,25.5c0.8,0,1.6-0.2,2.3-0.7l-3.4,8.4c-0.1,0.3-0.4,0.6-0.8,0.6c-0.4,0.1-0.7,0-1-0.3L6.9,31l-3.4,0.1
				c-0.4,0-0.7-0.2-0.9-0.5s-0.3-0.6-0.1-1l3-7.4c0.5,0.4,1.1,0.7,1.6,0.9l0.6,0.1c0.3,0.1,0.5,0.2,0.6,0.2s0.2,0.1,0.3,0.3
				c0.1,0.1,0.2,0.2,0.2,0.2C9.7,25.1,10.9,25.5,12.2,25.5z M18.1,23.4c-0.6,0.1-1.2-0.1-1.7-0.4c-0.4-0.3-0.9-0.4-1.4-0.4
				s-1,0.1-1.4,0.4c-0.5,0.3-1.1,0.4-1.7,0.4c-0.6-0.1-1.1-0.3-1.5-0.8c-0.4-0.4-0.7-0.7-1-0.8c-0.2-0.1-0.6-0.2-1.2-0.4l-0.5-0.1
				c-0.4-0.1-0.8-0.4-1.1-0.7c-0.3-0.4-0.6-0.7-0.7-1.2l-0.1-0.3c-0.2-0.7-0.3-1.1-0.4-1.3c-0.1-0.2-0.4-0.6-0.9-1.1l-0.3-0.3
				c-0.4-0.3-0.6-0.8-0.7-1.2c-0.1-0.5-0.1-0.9,0-1.3l0.1-0.4c0.2-0.7,0.3-1.2,0.3-1.4s-0.1-0.7-0.3-1.4l-0.1-0.3
				c-0.1-0.5-0.1-1,0-1.4c0.1-0.5,0.3-0.9,0.7-1.2l0.3-0.3C5,7,5.3,6.6,5.4,6.4s0.3-0.6,0.4-1.3l0.1-0.4C6,4.3,6.3,3.9,6.6,3.5
				C7,3.2,7.3,2.9,7.8,2.8l0.3-0.1c0.7-0.2,1.1-0.3,1.3-0.5c0.2-0.1,0.5-0.4,1-0.9L10.7,1c0.3-0.3,0.8-0.6,1.2-0.7
				c0.5-0.1,0.9-0.1,1.3,0l0.3,0.1c0.7,0.2,1.2,0.3,1.4,0.3s0.7-0.1,1.4-0.3l0.3-0.1c0.4-0.1,0.9-0.1,1.3,0c0.5,0.1,0.9,0.3,1.2,0.7
				l0.3,0.3c0.5,0.5,0.8,0.8,1,0.9s0.6,0.3,1.3,0.5L22,2.8c0.4,0.1,0.8,0.4,1.1,0.7c0.3,0.4,0.6,0.7,0.7,1.2l0.1,0.4
				c0.2,0.7,0.3,1.1,0.4,1.3s0.4,0.5,0.9,1l0.3,0.3c0.3,0.4,0.6,0.8,0.7,1.2c0.1,0.5,0.1,0.9,0,1.4l-0.1,0.3
				c-0.2,0.7-0.3,1.2-0.3,1.4s0.1,0.7,0.3,1.4l0.1,0.4c0.1,0.4,0.1,0.9,0,1.3c-0.1,0.5-0.3,0.9-0.7,1.2l-0.3,0.3
				c-0.5,0.5-0.8,0.9-0.9,1.1S24,18.3,23.9,19l-0.1,0.3c-0.1,0.4-0.4,0.8-0.7,1.2c-0.3,0.4-0.7,0.6-1.1,0.7l-0.5,0.1
				c-0.5,0.1-0.9,0.3-1.1,0.4s-0.5,0.4-0.9,0.8C19.2,23.1,18.7,23.3,18.1,23.4z M10.6,16.3c1.2,1.2,2.7,1.8,4.4,1.8s3.2-0.6,4.4-1.8
				c1.2-1.2,1.8-2.7,1.8-4.5s-0.6-3.2-1.8-4.5c-1.2-1.2-2.7-1.8-4.4-1.8s-3.2,0.6-4.4,1.8S8.8,10,8.8,11.8S9.4,15.1,10.6,16.3z
				 M27.4,30.8c-0.2,0.3-0.5,0.5-0.9,0.5l-3.4-0.1l-2.4,2.5c-0.3,0.3-0.6,0.4-1,0.3c-0.4-0.1-0.6-0.3-0.8-0.6L15.5,25
				c0.7,0.4,1.5,0.7,2.3,0.7c1.3,0,2.5-0.5,3.4-1.4l0.2-0.2c0.1-0.1,0.2-0.2,0.3-0.3c0.1,0,0.3-0.1,0.6-0.2l0.6-0.1
				c0.6-0.2,1.1-0.5,1.6-0.9l3,7.4C27.7,30.1,27.6,30.5,27.4,30.8z"/>
		</g>
	</g>
</g>
</svg>
