<?xml version="1.0" encoding="utf-8"?>
<!-- Generator: Adobe Illustrator 23.0.1, SVG Export Plug-In . SVG Version: 6.00 Build 0)  -->
<svg version="1.1" id="ac1703c3-1f2e-43d8-8288-b7b100ac2223"
	 xmlns="http://www.w3.org/2000/svg" xmlns:xlink="http://www.w3.org/1999/xlink" x="0px" y="0px" viewBox="0 0 30.5 30.5"
	 style="enable-background:new 0 0 30.5 30.5;" xml:space="preserve">
<style type="text/css">
	.st0{fill:#004C5E;}
</style>
<title>menu_icon1</title>
<path class="st0" d="M15.3,0C6.9,0,0,6.9,0,15.3s6.9,15.3,15.3,15.3s15.3-6.9,15.3-15.3S23.7,0,15.3,0z M15.6,23.6
	c-1.9,0.1-3.6-0.5-4.8-1.7c-1.2-1.2-1.9-2.9-1.9-6.1c0-5,2.2-8.8,7.1-8.8c1.4,0,2.7,0.3,3.9,1c0.8,0.4,1.2,1.4,0.8,2.2
	c-0.3,0.6-0.9,0.9-1.5,0.9c-0.3,0-0.6-0.1-0.9-0.3c-0.7-0.4-1.5-0.7-2.4-0.6c-2,0-3,1.6-3.2,3.7c1-0.7,2.1-1,3.3-1
	c3.2,0,5.7,1.8,5.7,5.1S19.1,23.6,15.6,23.6z"/>
<path class="st0" d="M18.1,18.2L18.1,18.2c0-1.4-1-2.4-2.8-2.4s-2.8,1-2.8,2.3v0.1c0,1.4,1.1,2.4,2.8,2.4S18.1,19.6,18.1,18.2z"/>
</svg>
