<?xml version="1.0" encoding="utf-8"?>
<!-- Generator: Adobe Illustrator 23.0.1, SVG Export Plug-In . SVG Version: 6.00 Build 0)  -->
<svg version="1.1" id="圖層_1" xmlns="http://www.w3.org/2000/svg" xmlns:xlink="http://www.w3.org/1999/xlink" x="0px" y="0px"
	 viewBox="0 0 22 34" style="enable-background:new 0 0 22 34;" xml:space="preserve">
<style type="text/css">
	.st0{fill:#FFFFFF;}
</style>
<g>
	<path class="st0" d="M0.75,15.2L15.27,0.75c0.5-0.5,1.1-0.75,1.81-0.75s1.31,0.25,1.81,0.75l2.35,2.44C21.75,3.69,22,4.29,22,5
		c0,0.71-0.25,1.28-0.75,1.7L10.99,17l10.25,10.2C21.75,27.7,22,28.3,22,29c0,0.71-0.25,1.31-0.75,1.8l-2.35,2.44
		c-0.5,0.5-1.1,0.75-1.81,0.75c-0.71,0-1.31-0.25-1.81-0.75L0.75,18.8C0.25,18.31,0,17.71,0,17C0,16.29,0.25,15.69,0.75,15.2z"/>
</g>
</svg>
