<?xml version="1.0" encoding="utf-8"?>
<!-- Generator: Adobe Illustrator 23.0.1, SVG Export Plug-In . SVG Version: 6.00 Build 0)  -->
<svg version="1.1" id="圖層_1" xmlns="http://www.w3.org/2000/svg" xmlns:xlink="http://www.w3.org/1999/xlink" x="0px" y="0px"
	 viewBox="0 0 30 34" style="enable-background:new 0 0 30 34;" xml:space="preserve">
<style type="text/css">
	.st0{opacity:0.5;}
	.st1{fill:#FFFFFF;}
	.st2{fill:#3A2A24;}
</style>
<g>
	<g class="st0">
		<path class="st1" d="M0,17.55c0-0.51,0.18-0.95,0.54-1.31l2.63-2.62c0.36-0.36,0.8-0.54,1.32-0.54s0.95,0.18,1.32,0.54l5.69,5.69
			l12.7-12.67c0.36-0.36,0.8-0.54,1.32-0.54c0.52,0,0.95,0.18,1.32,0.54l2.63,2.62c0.36,0.36,0.54,0.8,0.54,1.31
			c0,0.51-0.18,0.95-0.54,1.31L15.45,25.84l-2.63,2.62C12.45,28.82,12.01,29,11.5,29c-0.52,0-0.95-0.18-1.32-0.54l-2.63-2.62
			l-7.01-6.98C0.18,18.5,0,18.06,0,17.55z"/>
	</g>
	<g>
		<path class="st2" d="M0,16.45c0-0.51,0.18-0.95,0.54-1.31l2.63-2.62c0.36-0.36,0.8-0.54,1.32-0.54s0.95,0.18,1.32,0.54l5.69,5.69
			l12.7-12.67C24.55,5.18,24.99,5,25.51,5c0.52,0,0.95,0.18,1.32,0.54l2.63,2.62C29.82,8.52,30,8.96,30,9.47s-0.18,0.95-0.54,1.31
			L15.45,24.74l-2.63,2.62c-0.36,0.36-0.8,0.54-1.32,0.54c-0.52,0-0.95-0.18-1.32-0.54l-2.63-2.62l-7.01-6.98
			C0.18,17.4,0,16.97,0,16.45z"/>
	</g>
</g>
</svg>
