<?xml version="1.0" encoding="utf-8"?>
<!-- Generator: Adobe Illustrator 23.0.1, SVG Export Plug-In . SVG Version: 6.00 Build 0)  -->
<svg version="1.1" id="圖層_1" xmlns="http://www.w3.org/2000/svg" xmlns:xlink="http://www.w3.org/1999/xlink" x="0px" y="0px"
	 viewBox="0 0 30 34" style="enable-background:new 0 0 30 34;" xml:space="preserve">
<style type="text/css">
	.st0{fill:#CDBAB0;}
</style>
<g>
	<path class="st0" d="M0,5.58V3.72C0,3.28,0.16,2.9,0.47,2.59c0.31-0.31,0.69-0.46,1.14-0.46h7.5l0.6-1.26
		c0.13-0.27,0.33-0.47,0.6-0.63C10.58,0.08,10.87,0,11.18,0h7.63c0.31,0,0.6,0.08,0.87,0.23c0.27,0.16,0.47,0.37,0.6,0.63l0.6,1.26
		h7.5c0.45,0,0.83,0.16,1.14,0.46C29.84,2.9,30,3.28,30,3.72v1.86c0,0.22-0.08,0.41-0.23,0.56c-0.16,0.16-0.35,0.23-0.57,0.23H0.8
		c-0.22,0-0.41-0.08-0.57-0.23C0.08,5.99,0,5.8,0,5.58z M27.86,9.3v21.52c0,0.88-0.31,1.64-0.94,2.26C26.29,33.69,25.54,34,24.64,34
		H5.36c-0.89,0-1.65-0.31-2.28-0.93c-0.63-0.62-0.94-1.37-0.94-2.26V9.3c0-0.22,0.08-0.41,0.23-0.56C2.53,8.58,2.72,8.5,2.95,8.5
		h24.11c0.22,0,0.41,0.08,0.57,0.23C27.78,8.89,27.86,9.08,27.86,9.3z M9.64,13.81c0-0.31-0.1-0.56-0.3-0.76
		c-0.2-0.2-0.46-0.3-0.77-0.3c-0.31,0-0.57,0.1-0.77,0.3c-0.2,0.2-0.3,0.46-0.3,0.76v14.88c0,0.31,0.1,0.56,0.3,0.76
		c0.2,0.2,0.46,0.3,0.77,0.3c0.31,0,0.57-0.1,0.77-0.3c0.2-0.2,0.3-0.45,0.3-0.76V13.81z M16.07,13.81c0-0.31-0.1-0.56-0.3-0.76
		c-0.2-0.2-0.46-0.3-0.77-0.3c-0.31,0-0.57,0.1-0.77,0.3c-0.2,0.2-0.3,0.46-0.3,0.76v14.88c0,0.31,0.1,0.56,0.3,0.76
		c0.2,0.2,0.46,0.3,0.77,0.3c0.31,0,0.57-0.1,0.77-0.3c0.2-0.2,0.3-0.45,0.3-0.76V13.81z M22.5,13.81c0-0.31-0.1-0.56-0.3-0.76
		c-0.2-0.2-0.46-0.3-0.77-0.3c-0.31,0-0.57,0.1-0.77,0.3c-0.2,0.2-0.3,0.46-0.3,0.76v14.88c0,0.31,0.1,0.56,0.3,0.76
		c0.2,0.2,0.46,0.3,0.77,0.3c0.31,0,0.57-0.1,0.77-0.3c0.2-0.2,0.3-0.45,0.3-0.76V13.81z"/>
</g>
</svg>
