<?xml version="1.0" encoding="utf-8"?>
<!-- Generator: Adobe Illustrator 23.0.1, SVG Export Plug-In . SVG Version: 6.00 Build 0)  -->
<svg version="1.1" id="圖層_1" xmlns="http://www.w3.org/2000/svg" xmlns:xlink="http://www.w3.org/1999/xlink" x="0px" y="0px"
	 viewBox="0 0 30 34" style="enable-background:new 0 0 30 34;" xml:space="preserve">
<style type="text/css">
	.st0{fill:#CDBAB0;}
</style>
<g>
	<path class="st0" d="M16.59,7.68l12.75,13.2c0.44,0.45,0.66,1,0.66,1.65c0,0.65-0.22,1.2-0.66,1.65l-2.16,2.14
		C26.75,26.77,26.22,27,25.59,27c-0.63,0-1.12-0.23-1.5-0.68L15,17l-9,9.32C5.56,26.77,5.03,27,4.41,27c-0.63,0-1.16-0.23-1.59-0.68
		l-2.16-2.14C0.22,23.73,0,23.18,0,22.53c0-0.65,0.22-1.2,0.66-1.65l12.75-13.2C13.84,7.23,14.37,7,15,7
		C15.62,7,16.16,7.23,16.59,7.68z"/>
</g>
</svg>
