<?xml version="1.0" encoding="utf-8"?>
<!-- Generator: Adobe Illustrator 23.0.1, SVG Export Plug-In . SVG Version: 6.00 Build 0)  -->
<svg version="1.1" id="圖層_1" xmlns="http://www.w3.org/2000/svg" xmlns:xlink="http://www.w3.org/1999/xlink" x="0px" y="0px"
	 viewBox="0 0 30 34" style="enable-background:new 0 0 30 34;" xml:space="preserve">
<style type="text/css">
	.st0{fill:#CDBAB0;}
</style>
<g>
	<path class="st0" d="M22.5,4.03c2.3,1.35,4.12,3.18,5.47,5.47C29.32,11.8,30,14.3,30,17c0,2.7-0.68,5.2-2.03,7.5
		c-1.35,2.3-3.18,4.12-5.47,5.47C20.2,31.32,17.7,32,15,32c-1.9,0-3.71-0.34-5.44-1.03c-1.73-0.69-3.27-1.63-4.6-2.84
		c-0.16-0.12-0.24-0.29-0.24-0.51c0-0.22,0.06-0.39,0.18-0.51l2.42-2.42c0.12-0.12,0.28-0.19,0.48-0.21
		c0.2-0.02,0.36,0.03,0.48,0.15c0.93,0.85,1.97,1.48,3.11,1.91c1.15,0.42,2.35,0.64,3.6,0.64c1.85,0,3.56-0.45,5.11-1.36
		c1.55-0.91,2.78-2.14,3.69-3.69c0.91-1.55,1.36-3.25,1.36-5.08c0-1.83-0.46-3.54-1.39-5.11c-0.93-1.57-2.18-2.81-3.75-3.72
		s-3.27-1.36-5.08-1.36c-1.29,0-2.53,0.24-3.72,0.73c-1.19,0.48-2.25,1.15-3.18,2l2.54,2.54c0.28,0.28,0.42,0.63,0.42,1.03
		c0,0.4-0.14,0.75-0.42,1.03c-0.28,0.28-0.63,0.42-1.03,0.42h-8.1c-0.4,0-0.75-0.14-1.03-0.42C0.14,13.88,0,13.53,0,13.13v-8.1
		C0,4.62,0.14,4.28,0.42,4c0.28-0.28,0.62-0.42,1.03-0.42c0.4,0,0.75,0.14,1.03,0.42l2.18,2.18C6.03,4.84,7.6,3.81,9.38,3.09
		C11.15,2.36,13.02,2,15,2C17.7,2,20.2,2.68,22.5,4.03z"/>
</g>
</svg>
