<?xml version="1.0" encoding="utf-8"?>
<!-- Generator: Adobe Illustrator 23.0.1, SVG Export Plug-In . SVG Version: 6.00 Build 0)  -->
<svg version="1.1" id="圖層_1" xmlns="http://www.w3.org/2000/svg" xmlns:xlink="http://www.w3.org/1999/xlink" x="0px" y="0px"
	 viewBox="0 0 30 34" style="enable-background:new 0 0 30 34;" xml:space="preserve">
<style type="text/css">
	.st0{fill:#233200;}
</style>
<g>
	<path class="st0" d="M0,16.5c0-0.5,0.2-0.9,0.5-1.3l2.6-2.6C3.5,12.2,4,12,4.5,12s0.9,0.2,1.3,0.5l5.7,5.7L24.2,5.5
		C24.5,5.2,25,5,25.5,5s1,0.2,1.3,0.5l2.6,2.6C29.8,8.5,30,9,30,9.5s-0.2,0.9-0.5,1.3l-14,14l-2.6,2.6c-0.4,0.4-0.8,0.5-1.3,0.5
		s-0.9-0.2-1.3-0.5l-2.6-2.6l-7-7C0.2,17.4,0,17,0,16.5z"/>
</g>
</svg>
