<?xml version="1.0" encoding="utf-8"?>
<!-- Generator: Adobe Illustrator 23.0.1, SVG Export Plug-In . SVG Version: 6.00 Build 0)  -->
<svg version="1.1" id="圖層_1" xmlns="http://www.w3.org/2000/svg" xmlns:xlink="http://www.w3.org/1999/xlink" x="0px" y="0px"
	 viewBox="0 0 30 34" style="enable-background:new 0 0 30 34;" xml:space="preserve">
<style type="text/css">
	.st0{fill:#F2DAC7;}
</style>
<g>
	<path class="st0" d="M16.6,7.7l12.8,13.2c0.4,0.5,0.7,1,0.7,1.6s-0.2,1.2-0.7,1.6l-2.2,2.1c-0.4,0.5-1,0.7-1.6,0.7
		s-1.1-0.2-1.5-0.7L15,17l-9,9.3C5.6,26.8,5,27,4.4,27c-0.6,0-1.2-0.2-1.6-0.7l-2.2-2.1c-0.4-0.5-0.7-1-0.7-1.6s0.2-1.2,0.7-1.6
		L13.4,7.7C13.8,7.2,14.4,7,15,7C15.6,7,16.2,7.2,16.6,7.7z"/>
</g>
</svg>
