<?xml version="1.0" encoding="utf-8"?>
<!-- Generator: Adobe Illustrator 23.0.1, SVG Export Plug-In . SVG Version: 6.00 Build 0)  -->
<svg version="1.1" id="圖層_1" xmlns="http://www.w3.org/2000/svg" xmlns:xlink="http://www.w3.org/1999/xlink" x="0px" y="0px"
	 viewBox="0 0 30 34" style="enable-background:new 0 0 30 34;" xml:space="preserve">
<style type="text/css">
	.st0{fill:#F2DAC7;}
</style>
<g>
	<path class="st0" d="M22.5,4c2.3,1.3,4.1,3.2,5.5,5.5c1.4,2.3,2,4.8,2,7.5s-0.7,5.2-2,7.5s-3.2,4.1-5.5,5.5c-2.3,1.4-4.8,2-7.5,2
		c-1.9,0-3.7-0.3-5.4-1S6.3,29.3,5,28.1c-0.2-0.1-0.2-0.3-0.2-0.5s0.1-0.4,0.2-0.5l2.4-2.4c0.1-0.1,0.3-0.2,0.5-0.2
		c0.2,0,0.4,0,0.5,0.1c0.9,0.9,2,1.5,3.1,1.9c1.1,0.4,2.4,0.6,3.6,0.6c1.9,0,3.6-0.5,5.1-1.4c1.5-0.9,2.8-2.1,3.7-3.7
		c0.9-1.5,1.4-3.2,1.4-5.1s-0.5-3.5-1.4-5.1S21.6,9.1,20,8.2s-3.3-1.4-5.1-1.4c-1.3,0-2.5,0.2-3.7,0.7C10,8.1,9,8.7,8,9.6l2.5,2.5
		c0.3,0.3,0.4,0.6,0.4,1s-0.1,0.8-0.4,1s-0.6,0.4-1,0.4H1.4c-0.4,0-0.8-0.1-1-0.4C0.1,13.9,0,13.5,0,13.1V5c0-0.4,0.1-0.7,0.4-1
		s0.6-0.4,1-0.4c0.4,0,0.7,0.1,1,0.4l2.2,2.2C6,4.8,7.6,3.8,9.4,3.1C11.1,2.4,13,2,15,2C17.7,2,20.2,2.7,22.5,4z"/>
</g>
</svg>
