<?xml version="1.0" encoding="utf-8"?>
<!-- Generator: Adobe Illustrator 23.0.1, SVG Export Plug-In . SVG Version: 6.00 Build 0)  -->
<svg version="1.1" id="圖層_1" xmlns="http://www.w3.org/2000/svg" xmlns:xlink="http://www.w3.org/1999/xlink" x="0px" y="0px"
	 viewBox="0 0 30 34" style="enable-background:new 0 0 30 34;" xml:space="preserve">
<style type="text/css">
	.st0{fill:#6A2000;}
</style>
<g>
	<path class="st0" d="M12.2,25.5c0.8,0,1.6-0.2,2.3-0.7l-3.4,8.4c-0.1,0.3-0.4,0.6-0.8,0.6c-0.4,0.1-0.7,0-1-0.3l-2.4-2.5l-3.4,0.1
		c-0.4,0-0.7-0.2-0.9-0.5c-0.2-0.3-0.3-0.6-0.1-1l3-7.4c0.5,0.4,1.1,0.7,1.6,0.9l0.6,0.1c0.3,0.1,0.5,0.2,0.6,0.2
		c0.1,0,0.2,0.1,0.3,0.3c0.1,0.1,0.2,0.2,0.2,0.2C9.7,25.1,10.9,25.5,12.2,25.5z M18.1,23.4c-0.6,0.1-1.2-0.1-1.7-0.4
		c-0.4-0.3-0.9-0.4-1.4-0.4c-0.5,0-1,0.1-1.4,0.4c-0.5,0.3-1.1,0.4-1.7,0.4c-0.6-0.1-1.1-0.3-1.5-0.8c-0.4-0.4-0.7-0.7-1-0.8
		c-0.2-0.1-0.6-0.2-1.2-0.4l-0.5-0.1c-0.4-0.1-0.8-0.4-1.1-0.7c-0.3-0.4-0.6-0.7-0.7-1.2l-0.1-0.3c-0.2-0.7-0.3-1.1-0.4-1.3
		c-0.1-0.2-0.4-0.6-0.9-1.1l-0.3-0.3c-0.4-0.3-0.6-0.8-0.7-1.2c-0.1-0.5-0.1-0.9,0-1.3l0.1-0.4c0.2-0.7,0.3-1.2,0.3-1.4
		c0-0.2-0.1-0.7-0.3-1.4l-0.1-0.3c-0.1-0.5-0.1-1,0-1.4c0.1-0.5,0.3-0.9,0.7-1.2l0.3-0.3C5,7,5.3,6.6,5.4,6.4
		c0.1-0.2,0.3-0.6,0.4-1.3l0.1-0.4c0.1-0.4,0.4-0.8,0.7-1.2C7,3.2,7.3,2.9,7.8,2.8l0.3-0.1c0.7-0.2,1.1-0.3,1.3-0.5
		c0.2-0.1,0.5-0.4,1-0.9l0.3-0.3c0.3-0.3,0.8-0.6,1.2-0.7c0.5-0.1,0.9-0.1,1.3,0l0.3,0.1c0.7,0.2,1.2,0.3,1.4,0.3
		c0.2,0,0.7-0.1,1.4-0.3l0.3-0.1c0.4-0.1,0.9-0.1,1.3,0c0.5,0.1,0.9,0.3,1.2,0.7l0.3,0.3c0.5,0.5,0.8,0.8,1,0.9
		c0.2,0.1,0.6,0.3,1.3,0.5l0.3,0.1c0.4,0.1,0.8,0.4,1.1,0.7c0.3,0.4,0.6,0.7,0.7,1.2l0.1,0.4c0.2,0.7,0.3,1.1,0.4,1.3
		c0.1,0.2,0.4,0.5,0.9,1l0.3,0.3c0.3,0.4,0.6,0.8,0.7,1.2c0.1,0.5,0.1,0.9,0,1.4l-0.1,0.3c-0.2,0.7-0.3,1.2-0.3,1.4
		c0,0.2,0.1,0.7,0.3,1.4l0.1,0.4c0.1,0.4,0.1,0.9,0,1.3c-0.1,0.5-0.3,0.9-0.7,1.2l-0.3,0.3c-0.5,0.5-0.8,0.9-0.9,1.1
		c-0.1,0.2-0.3,0.6-0.4,1.3l-0.1,0.3c-0.1,0.4-0.4,0.8-0.7,1.2c-0.3,0.4-0.7,0.6-1.1,0.7l-0.5,0.1c-0.5,0.1-0.9,0.3-1.1,0.4
		c-0.2,0.1-0.5,0.4-0.9,0.8C19.2,23.1,18.7,23.3,18.1,23.4z M10.6,16.3c1.2,1.2,2.7,1.8,4.4,1.8s3.2-0.6,4.4-1.8
		c1.2-1.2,1.8-2.7,1.8-4.5c0-1.8-0.6-3.2-1.8-4.5c-1.2-1.2-2.7-1.8-4.4-1.8s-3.2,0.6-4.4,1.8c-1.2,1.2-1.8,2.7-1.8,4.5
		C8.8,13.6,9.4,15.1,10.6,16.3z M27.4,30.8c-0.2,0.3-0.5,0.5-0.9,0.5l-3.4-0.1l-2.4,2.5c-0.3,0.3-0.6,0.4-1,0.3
		c-0.4-0.1-0.6-0.3-0.8-0.6l-3.4-8.4c0.7,0.4,1.5,0.7,2.3,0.7c1.3,0,2.5-0.5,3.4-1.4l0.2-0.2c0.1-0.1,0.2-0.2,0.3-0.3
		c0.1,0,0.3-0.1,0.6-0.2l0.6-0.1c0.6-0.2,1.1-0.5,1.6-0.9l3,7.4C27.7,30.1,27.6,30.5,27.4,30.8z"/>
</g>
</svg>
