<?xml version="1.0" encoding="utf-8"?>
<!-- Generator: Adobe Illustrator 23.0.1, SVG Export Plug-In . SVG Version: 6.00 Build 0)  -->
<svg version="1.1" id="ac81a709-a5b1-47b1-8d58-b89fcc28844a"
	 xmlns="http://www.w3.org/2000/svg" xmlns:xlink="http://www.w3.org/1999/xlink" x="0px" y="0px" viewBox="0 0 33.1 31.7"
	 style="enable-background:new 0 0 33.1 31.7;" xml:space="preserve">
<style type="text/css">
	.st0{opacity:0.3;fill:#2B5FAC;enable-background:new    ;}
	.st1{fill:#FFFBC2;}
	.st2{fill:#F5DC00;}
</style>
<title>header_disc</title>
<path class="st0" d="M18.9,1.5L22,7.7c0.4,0.8,1.1,1.3,2,1.4l6.9,1c1.4,0.2,2.4,1.5,2.2,3c-0.1,0.6-0.4,1.1-0.8,1.5l-5,4.8
	c-0.6,0.6-0.9,1.5-0.8,2.3l1.2,6.8c0.2,1.4-0.7,2.8-2.2,3.1c-0.6,0.1-1.2,0-1.7-0.3l-6.1-3.2c-0.8-0.4-1.7-0.4-2.5,0l-6.1,3.2
	c-1.3,0.7-2.9,0.2-3.6-1.1c-0.3-0.5-0.4-1.1-0.3-1.7l1.2-6.8c0.1-0.9-0.1-1.7-0.8-2.3l-5-4.8c-1-1-1.1-2.7-0.1-3.7
	c0.4-0.4,0.9-0.7,1.5-0.8l6.9-1c0.9-0.1,1.6-0.7,2-1.4l3.1-6.2c0.6-1.3,2.2-1.9,3.5-1.3C18.2,0.5,18.7,0.9,18.9,1.5z"/>
<path class="st1" d="M18.2,5.6l2.2,4.4c0.3,0.5,0.8,0.9,1.4,1l4.9,0.7c1,0.1,1.7,1.1,1.6,2.1c-0.1,0.4-0.3,0.8-0.6,1.1l-3.5,3.4
	c-0.5,0.5-0.6,1.1-0.5,1.7l0.8,4.9c0.2,1-0.5,2-1.5,2.2c-0.4,0.1-0.8,0-1.2-0.2l-4.4-2.3c-0.5-0.3-1.2-0.3-1.8,0l-4.4,2.3
	c-0.9,0.5-2.1,0.1-2.5-0.8c-0.2-0.4-0.3-0.8-0.2-1.2l0.8-4.9c0.1-0.6-0.1-1.2-0.5-1.7L5.4,15c-0.7-0.7-0.8-1.9,0-2.7
	C5.6,12,6,11.8,6.4,11.8l4.9-0.7c0.6-0.1,1.1-0.5,1.4-1l2.2-4.4c0.5-0.9,1.6-1.3,2.5-0.9C17.7,5,18,5.2,18.2,5.6z"/>
<path class="st2" d="M17.7,8.7l1.5,3.1c0.2,0.4,0.6,0.7,1,0.7l3.4,0.5c0.7,0.1,1.2,0.8,1.1,1.5c0,0.3-0.2,0.5-0.4,0.7l-2.4,2.4
	c-0.3,0.3-0.5,0.7-0.4,1.2l0.6,3.4c0.1,0.7-0.4,1.4-1.1,1.5c-0.3,0-0.6,0-0.8-0.1l-3-1.6c-0.4-0.2-0.8-0.2-1.2,0l-3,1.6
	c-0.6,0.3-1.4,0.1-1.8-0.5C11,22.7,11,22.4,11,22.1l0.6-3.4c0.1-0.4-0.1-0.9-0.4-1.2l-2.4-2.4c-0.5-0.5-0.5-1.3,0-1.8
	C9,13.2,9.2,13,9.5,13l3.4-0.5c0.4-0.1,0.8-0.3,1-0.7l1.5-3.1c0.4-0.6,1.2-0.8,1.8-0.5C17.4,8.4,17.6,8.5,17.7,8.7z"/>
</svg>
