<?xml version="1.0" encoding="utf-8"?>
<!-- Generator: Adobe Illustrator 23.0.1, SVG Export Plug-In . SVG Version: 6.00 Build 0)  -->
<svg version="1.1" id="ad746aa9-e368-41a0-ab17-5c2239a5708e"
	 xmlns="http://www.w3.org/2000/svg" xmlns:xlink="http://www.w3.org/1999/xlink" x="0px" y="0px" viewBox="0 0 93.7 99.8"
	 style="enable-background:new 0 0 93.7 99.8;" xml:space="preserve">
<style type="text/css">
	.st0{fill:#B25A21;}
</style>
<title>menu_icon2</title>
<g>
	<path class="st0" d="M22.5,25.9L22.5,25.9h21c1.8,0,3.3-1.5,3.3-3.3V11.3c0-1.8-1.5-3.3-3.3-3.3h-1.9C40.9,3.4,37.4,0,33.3,0
		c-4.1,0-7.6,3.4-8.4,7.9h-2.4c-1.9,0-3.4,1.5-3.4,3.3v11.3C19.2,24.4,20.7,25.9,22.5,25.9z M33.3,4c2,0,3.7,1.6,4.3,3.9H29
		C29.6,5.6,31.3,4,33.3,4z"/>
	<path class="st0" d="M56.2,79.2c-0.1,0-0.2,0.1-0.1,0.3c0,0,0,0.1,0.1,0.1l1.7,1.3c0.1,0.1,0.1,0.2,0,0.3c0,0,0,0,0,0L53.1,87
		c-1.4,1.7-3.3,2.9-5.5,3.4L42,91.7c-2.2,0.5-4.5-0.9-5-3.1c0-0.1,0-0.1,0-0.2l-1.1-6.3c-0.4-2,0-4,0.9-5.8H14.3
		c-1.9,0-3.4-1.5-3.4-3.4c0-1.9,1.5-3.4,3.4-3.4c0,0,0,0,0,0h28.3c0-1.5,0.5-3,1.4-4.3l3.1-4.3H14.3c-1.9,0-3.4-1.5-3.4-3.4
		c0-1.9,1.5-3.4,3.4-3.4c0,0,0,0,0,0h37.4H52l14-19.4V19.1c0-2.6-2.1-4.7-4.6-4.7H51.1v12.4c0,1.8-1.5,3.3-3.4,3.3H18.3
		c-1.8,0-3.3-1.5-3.3-3.3V14.5H4.7c-2.6,0-4.7,2.1-4.7,4.7v75.9c0,2.6,2.1,4.7,4.6,4.7c0,0,0,0,0,0h56.8c2.6,0,4.7-2.1,4.7-4.7V67.9
		l-6.3,8.7C58.9,77.8,57.6,78.7,56.2,79.2z M14,39.2c0.1,0,0.2,0,0.4,0h37.4c1.9,0.1,3.4,1.7,3.2,3.6c-0.1,1.8-1.5,3.2-3.2,3.2H14.3
		c-1.9,0.1-3.5-1.4-3.6-3.2C10.6,40.9,12.1,39.3,14,39.2z"/>
	<path class="st0" d="M92.5,18.8C92.5,18.8,92.5,18.8,92.5,18.8l-4-2.9c-1.2-0.9-3-0.6-3.8,0.6l-37,51.3c-0.9,1.2-0.6,3,0.6,3.9
		c0,0,0,0,0,0l4,2.8c1.2,0.9,2.9,0.6,3.8-0.6l37-51.3C94,21.4,93.7,19.7,92.5,18.8z"/>
	<polygon class="st0" points="39.9,79.4 41.3,87.2 48.5,85.6 51.5,81.8 42.8,75.4 	"/>
</g>
</svg>
