<?xml version="1.0" encoding="utf-8"?>
<!-- Generator: Adobe Illustrator 23.0.1, SVG Export Plug-In . SVG Version: 6.00 Build 0)  -->
<svg version="1.1" id="be4eb8e8-1cd8-402a-80c5-6ff8dc291796"
	 xmlns="http://www.w3.org/2000/svg" xmlns:xlink="http://www.w3.org/1999/xlink" x="0px" y="0px" viewBox="0 0 100.9 100.5"
	 style="enable-background:new 0 0 100.9 100.5;" xml:space="preserve">
<style type="text/css">
	.st0{fill:#B95B08;}
</style>
<title>menu_icon3</title>
<g>
	<path class="st0" d="M15,46.7c2.5,0,4.7-1,6.2-2.7l8.8,5.8c0,0,0,0,0,0c0,4.8,3.9,8.6,8.6,8.6s8.6-3.9,8.6-8.6
		c0-1.4-0.3-2.7-0.9-3.8l12.2-11.9c1.1,0.5,2.3,0.8,3.7,0.8c4.8,0,8.6-3.9,8.6-8.6c0-0.8-0.1-1.6-0.3-2.3L81.2,16
		c1.3,0.8,2.9,1.3,4.5,1.3c4.8,0,8.6-3.9,8.6-8.6S90.5,0,85.7,0s-8.6,3.9-8.6,8.6c0,0.9,0.1,1.8,0.4,2.6l-10.4,8
		c-1.4-0.9-3-1.4-4.8-1.4c-4.8,0-8.6,3.9-8.6,8.6c0,1.3,0.3,2.5,0.8,3.6L42.1,42c-1-0.4-2.2-0.7-3.4-0.7c-2.6,0-4.8,1.1-6.4,2.9
		l-8.7-5.7c0-0.1,0-0.2,0-0.3c0-4.8-3.9-8.6-8.6-8.6c-4.8,0-8.6,3.9-8.6,8.6C6.4,42.9,10.3,46.7,15,46.7z"/>
	<path class="st0" d="M97.9,94.6h-2.7V32.8c0-1.9-1.5-3.4-3.4-3.4H80.4c-1.9,0-3.4,1.5-3.4,3.4v61.8h-5.5V50.3
		c0-1.9-1.5-3.4-3.4-3.4H56.7c-1.9,0-3.4,1.5-3.4,3.4v44.3h-5.9V73.9c0-1.9-1.5-3.4-3.4-3.4H32.5c-1.9,0-3.4,1.5-3.4,3.4v20.7h-5
		V61.8c0-1.9-1.5-3.4-3.4-3.4H9.3c-1.9,0-3.4,1.5-3.4,3.4v32.8H3c-1.6,0-3,1.3-3,3s1.3,3,3,3h95c1.6,0,3-1.3,3-3
		S99.5,94.6,97.9,94.6z"/>
</g>
</svg>
