<svg id="e91605af-2850-41a2-ac90-48e513812b3a" data-name="圖層 1" xmlns="http://www.w3.org/2000/svg" viewBox="0 0 12.57 12.06"><title>star_icon</title><path d="M151,186.19l1.16,2.36a1,1,0,0,0,.76.55l2.6.38a1,1,0,0,1,.56,1.71L154.16,193a1,1,0,0,0-.29.89l.44,2.59a1,1,0,0,1-1.46,1.06l-2.32-1.22a1,1,0,0,0-.94,0l-2.33,1.22a1,1,0,0,1-1.46-1.06l.45-2.59A1,1,0,0,0,146,193l-1.89-1.84a1,1,0,0,1,.56-1.71l2.61-.38a1,1,0,0,0,.75-.55l1.17-2.36A1,1,0,0,1,151,186.19Z" transform="translate(-143.77 -185.63)" style="fill:#522f15"/></svg>